<svg xmlns="http://www.w3.org/2000/svg" xmlns:xlink="http://www.w3.org/1999/xlink">
  <linearGradient id="linear-gradient" gradientUnits="userSpaceOnUse" x1="70.29" x2="409.71" y1="70.29" y2="409.71">
    <stop offset="0" stop-color="#FFA500"/>
    <stop offset="1" stop-color="#FF4500"/>
  </linearGradient>
  <linearGradient id="linear-gradient-2" x1="201.96" x2="313.06" xlink:href="#linear-gradient" y1="190.29" y2="301.39"/>
  <g id="Layer_2" data-name="Layer 2">
    <g id="_10.J_" data-name="10.J_">
      <rect id="background" fill="#fff" height="480" rx="240" width="480"/>
      <path id="border" d="m240 20a220.07 220.07 0 0 1 85.63 422.72 220.06 220.06 0 0 1 -171.26-405.44 218.55 218.55 0 0 1 85.63-17.28m0-20c-132.55 0-240 107.45-240 240 0 132.55 107.45 240 240 240 132.55 0 240-107.45 240-240 0-132.55-107.45-240-240-240z" fill="url(#linear-gradient)"/>
      <path d="m160.65 306.3 41.7-24c6.6 11.7 13.5 18 29.7 18 21 0 27.3-12 27.3-24.9v-142.5h48v142.5c0 46.2-32.4 71.7-75.6 71.7-33.3 0-57.3-14.1-71.1-40.8z" fill="url(#linear-gradient-2)"/>
    </g>
  </g>
</svg>
